# xmcd
#
# Track frame offsets:
# 150
# 15434
# 31691
# 47981
# 63525
# 76404
# 90510
# 103964
# 119195
# 132579
# 147173
# 164049
# 179468
# 194512
# 206175
# 220088
# 234930
# 249044
# 264879
# 279291
# 294419
# 308518
# 321840
#
# Disc length: 4491 seconds
#
#
# Revision: 0
# Processed by: cddbd v1.5.2PL0 Copyright (c) Steve Scherf et al.
# Submitted via: FreeRIP 2.945 
#
DISCID=4f118917
DTITLE=Fergus-J1998 - 1000White-Women11
DYEAR=1998
DGENRE=Native American
TTITLE0=1101
TTITLE1=1102
TTITLE2=1103
TTITLE3=1104
TTITLE4=1105
TTITLE5=1106
TTITLE6=1107
TTITLE7=1108
TTITLE8=1109
TTITLE9=1110
TTITLE10=1111
TTITLE11=1112
TTITLE12=1113
TTITLE13=1114
TTITLE14=1115
TTITLE15=1116
TTITLE16=1117
TTITLE17=1118
TTITLE18=1119
TTITLE19=1120
TTITLE20=1121
TTITLE21=1122
TTITLE22=1123
EXTD=One Thousand White Women\nby Jim Fergus - read by Laura Hicks\nFiction BBC Audio Books America
EXTT0=
EXTT1=
EXTT2=
EXTT3=
EXTT4=
EXTT5=
EXTT6=
EXTT7=
EXTT8=
EXTT9=
EXTT10=
EXTT11=
EXTT12=
EXTT13=
EXTT14=
EXTT15=
EXTT16=
EXTT17=
EXTT18=
EXTT19=
EXTT20=
EXTT21=
EXTT22=
PLAYORDER=
